<svg height="512pt" viewBox="0 0 512 512.00025" width="512pt" xmlns="http://www.w3.org/2000/svg"><path d="m380.398438 297.972656c0-91.683594-74.128907-166.007812-165.570313-166.007812s-165.566406 74.324218-165.566406 166.007812 74.125 166.007813 165.566406 166.007813 165.570313-74.324219 165.570313-166.007813zm0 0" fill="#97c9e8"/><path d="m214.828125 131.964844c-8.496094 0-16.84375.644531-25 1.882812 79.578125 12.085938 140.566406 80.960938 140.566406 164.125 0 83.160156-60.988281 152.039063-140.566406 164.125 8.15625 1.238282 16.503906 1.882813 25 1.882813 91.441406 0 165.570313-74.324219 165.570313-166.007813s-74.128907-166.007812-165.570313-166.007812zm0 0" fill="#60b6ff"/><g fill="#baeb6c"><path d="m193.308594 196.480469c-25.503906 15.980469-44.632813 41.554687-30.285156 70.324219 14.34375 28.769531 46.226562 17.582031 75.71875 13.585937 29.488281-3.996094 7.171874 87.105469 24.707031 109.484375 17.535156 22.375 66.949219-22.378906 62.167969-51.148438-7.078126-42.59375-9.5625-57.539062 47.824218-87.90625l.15625-.054687c-19.34375-65.5-77.894531-114.097656-148.398437-118.46875l-.007813.25s-6.375 47.949219-31.882812 63.933594zm0 0"/><path d="m318.566406 168.597656c.007813.007813.019532.015625.03125.023438-.011718-.007813-.019531-.015625-.03125-.023438zm0 0"/><path d="m338.808594 187.960938c.003906.003906.007812.007812.007812.007812s-.003906-.003906-.007812-.007812zm0 0"/><path d="m104.839844 373.089844c-7.660156-11.679688 13.546875-39.15625 18.332031-59.933594 4.78125-20.777344-23.914063-19.179688-32.679687-26.371094-8.769532-7.195312-20.722657-38.359375-29.492188-45.550781l-1.402344-1.109375c-6.679687 18.015625-10.335937 37.5-10.335937 57.847656 0 54.871094 26.554687 103.515625 67.480469 133.742188l.050781-3.480469s6.378906-27.171875-11.953125-55.144531zm0 0"/><path d="m325.617188 338.726562c-.035157-.207031-.070313-.410156-.101563-.621093-3.171875 12.800781-7.820313 25.011719-13.757813 36.441406 9.421876-11.113281 15.714844-24.667969 13.859376-35.820313zm0 0"/></g><path d="m225.199219 132.296875-.007813.25s-.535156 4.003906-1.902344 10.074219c58.058594 21.976562 100.566407 75.722656 106.414063 140.101562 7.316406-10.007812 20.699219-19.710937 43.738281-31.902344l.15625-.054687c-19.347656-65.5-77.898437-114.097656-148.398437-118.46875zm0 0" fill="#96d629"/><path d="m169.074219 188.9375c-80.070313-13.585938-129.738281-114.394531-129.738281-114.394531s80.144531-78.785157 160.210937-65.203125c80.066406 13.585937 129.734375 114.394531 129.734375 114.394531s-80.144531 78.785156-160.207031 65.203125zm0 0" fill="#49cb5c"/><path d="m199.546875 9.34375c-15.289063-2.59375-30.574219-1.8125-45.308594 1.136719 76.714844 17.226562 124.042969 113.253906 124.042969 113.253906s-52.464844 51.5625-114.902344 64.0625c1.882813.425781 3.777344.8125 5.695313 1.140625 80.0625 13.582031 160.207031-65.203125 160.207031-65.203125s-49.667969-100.808594-129.734375-114.390625zm0 0" fill="#07b128"/><path d="m383.738281 91.085938c21.480469-50.824219 95.898438-67.9375 95.898438-67.9375s39.597656 65.292968 18.121093 116.117187c-21.476562 50.824219-95.898437 67.933594-95.898437 67.933594s-39.597656-65.289063-18.121094-116.113281zm0 0" fill="#49cb5c"/><path d="m479.640625 23.148438s-16.925781 3.898437-36.960937 13.480468c10.277343 21.777344 26.574218 65.96875 11.078124 102.636719-11.238281 26.585937-36.960937 43.945313-58.941406 54.457031 3.96875 8.40625 7.042969 13.476563 7.042969 13.476563s74.421875-17.109375 95.898437-67.933594c21.480469-50.824219-18.117187-116.117187-18.117187-116.117187zm0 0" fill="#07b128"/><path d="m503.898438 59.671875c-7.398438-23.261719-17.421876-39.917969-17.847657-40.617187-1.644531-2.710938-5.027343-4.121094-8.09375-3.417969-.792969.183593-19.726562 4.601562-41.5625 15.507812-29.480469 14.71875-50.074219 34.367188-59.5625 56.816407-7.898437 18.691406-9.03125 41.546874-3.429687 66.792968-11.933594-13.328125-25.359375-24.988281-39.992188-34.804687-4.46875-8.828125-16.285156-30.5625-34.757812-53.277344-6.082032-7.476563-17.785156 1.90625-11.640625 9.460937 12.449219 15.308594 21.816406 30.363282 27.675781 40.707032l-68.320312-13.316406-64.914063-88.542969c6.304687.089843 12.628906.699219 18.921875 1.933593 19.953125 3.90625 39.664062 14.066407 58.589844 30.199219 7.417968 6.320313 17.046875-5.183593 9.730468-11.417969-20.910156-17.820312-42.925781-29.09375-65.4375-33.503906-34.367187-6.726562-74.449218 2.101563-115.921874 25.539063-30.914063 17.46875-51.585938 36.65625-52.449219 37.464843-2.765625 2.582032-3.207031 7.277344-.890625 10.296876 3.03125 6.21875 14.519531 28.652343 33.640625 52.804687 11.273437 14.242187 23.160156 26.429687 35.457031 36.445313-3.492188 2.925781-6.894531 5.988281-10.183594 9.210937-17.574218 17.191406-31.03125 37.46875-39.867187 59.636719-7.808594 19.589844-12.007813 40.660156-12.242188 62.378906-.386719 35.515625 9.902344 69.769531 29.765625 99.0625 19.402344 28.613281 46.527344 50.582031 78.441406 63.527344 8.929688 3.617187 14.578126-10.273438 5.640626-13.898438-11.5625-4.691406-22.425782-10.699218-32.445313-17.847656 1.28125-7.105469 4.253906-32.679688-12.734375-59.15625-2.378906-3.703125 4.730469-18.246094 8.976562-26.933594 4.378907-8.953125 8.902344-18.210937 11.015626-26.925781 2.242187-9.257813-.28125-17.03125-7.296876-22.484375-5.152343-4.003906-11.890624-6.074219-17.832031-7.902344-3.859375-1.1875-8.234375-2.53125-9.796875-3.835937-3.21875-2.695313-8.476562-12.660157-12.699218-20.664063-4.6875-8.878906-9.152344-17.328125-13.707032-22.53125 10.253906-24.351562 26.722656-45.898437 47.347656-62.382812 18.839844 12.835937 40.34375 21.691406 63.199219 23.484375-26.507812 20.539062-35.082031 46.765625-22.824219 71.960937 14.3125 29.417969 43.769532 24.71875 69.761719 20.578125 4.496094-.71875 9.148438-1.460937 13.605469-2.015625 1.671875-.210937 2.175781.246094 2.511719.542969 5.691406 5.0625 5.523437 29.242187 5.402343 46.898437-.167968 24.421876-.324218 47.488282 8.773438 59.332032 4.640625 6.039062 11.175781 9.125 18.835938 9.125 4.589843 0 9.578124-1.105469 14.808593-3.347656 22.621094-9.6875 46.136719-38.84375 42.550781-61.914063-3.136718-20.167969-5.210937-33.492187-.320312-44.234375 4.523438-9.941406 15.453125-19.144531 36.980469-30.886719 2.578125 11.609375 3.878906 23.6875 3.746093 36.078125-.460937 42.292969-17.367187 81.878906-47.601562 111.457032-33.789062 33.054687-81.28125 49.378906-128.257812 44.203124-9.574219-1.039062-11.226563 13.855469-1.640626 14.910157 51.421876 5.664062 103.410157-12.210938 140.386719-48.390625 33.101563-32.382813 51.609375-75.714844 52.113281-122.019532.667969-61.398437-30.835937-115.792968-78.792968-147.125 9.910156-7.066406 17.292968-13.175781 21.386718-16.722656 17.484376 12.542969 32.992188 27.996094 45.894532 46 30.976562 43.226563 43.261718 95.925782 34.597656 148.394532-17.890625 108.308593-120.554688 181.878906-228.882812 163.984374-52.472657-8.667968-98.425782-37.242187-129.402344-80.46875-30.976563-43.226562-43.261719-95.929687-34.597656-148.394531 1.558593-9.441406-13.234376-11.917969-14.796876-2.445312-9.320312 56.421875 3.894532 113.09375 37.199219 159.578125 33.308594 46.480468 82.730469 77.210937 139.152344 86.53125 11.800781 1.949218 23.613281 2.910156 35.34375 2.910156 44.34375 0 87.480469-13.769531 124.242187-40.109375 46.488282-33.308594 77.222657-82.722656 86.539063-139.144531 6.828125-41.34375 1.542969-82.820313-14.867187-120.328125 7.574218-2.234375 20.464843-6.570313 34.582031-13.621094 29.476562-14.71875 50.074219-34.367187 59.558593-56.816406 9.492188-22.453125 9.226563-50.914063-.765624-82.308594zm-435.332032 206.238281c5.582032 10.582032 10.859375 20.582032 16.34375 25.167969 3.882813 3.246094 9.289063 4.910156 15.011719 6.667969 14.660156 4.507812 16.363281 6.71875 14.957031 12.515625-1.726562 7.128906-5.886718 15.640625-9.910156 23.871093-7.746094 15.847657-15.0625 30.8125-8.128906 41.625 9.835937 15.324219 11.519531 30.410157 11.351562 39.796876-44.675781-40.285157-62.867187-103.914063-46.226562-161.746094 2.207031 3.78125 4.527344 8.175781 6.601562 12.101562zm362.890625-147.398437-21.316406-51.65625c10.371094-9.699219 22.40625-17 32.65625-22.140625 8.730469-4.378906 17.039063-7.65625 23.699219-9.976563zm48.867188-77.957031c2.980469 6.398437 6.433593 14.652343 9.382812 23.980468 3.234375 10.238282 6.203125 22.925782 6.792969 36.160156l-49.953125 20.609376zm-89.675781 53.246093c2.210937-5.230469 5.070312-10.082031 8.375-14.558593l24.265624 58.796874-21.777343 52.066407c-3.058594-6.488281-6.660157-15.015625-9.71875-24.699219-6.132813-19.390625-11.308594-47.558594-1.144531-71.605469zm48.050781 91.425781c-8.402344 4.21875-16.421875 7.410157-22.953125 9.714844l22.597656-54.023437 57.519531-23.734375c-.835937 6.445312-2.425781 12.832031-5.015625 18.957031-10.160156 24.046875-33.964844 39.96875-52.148437 49.085937zm-270.457031-4.269531c-2.652344-.519531-5.265626-1.152343-7.84375-1.875l83.011718-60.851562 68.351563 13.324219c-24.898438 19.617187-85.496094 60.769531-143.519531 49.402343zm-75.867188-46.929687c-17.753906-19.132813-30.765625-39.59375-38.238281-52.691406l86.984375 16.957031zm15.363281-100.070313 36.394531 49.640625-87.546874-17.066406c11.019531-8.703125 29.214843-21.769531 51.152343-32.574219zm58.09375 53.871094-44.121093-60.183594c13.207031-5.429687 27.386718-9.699219 41.921874-11.601562l61.035157 83.25zm-4.667969 14.371094 62.207032 12.125-79.839844 58.523437c-15.054688-6.953125-28.605469-16.949218-40.460938-28.0625zm203.523438 146.46875c-27.039062 14.40625-40.28125 25.722656-46.5625 39.527343-6.746094 14.820313-4.273438 30.730469-.851562 52.75 2.019531 12.984376-13.410157 37.160157-33.628907 45.820313-7.480469 3.203125-12.808593 2.824219-15.84375-1.128906-5.960937-7.753907-5.796875-31.230469-5.667969-50.089844.175782-26.09375.332032-48.628906-10.433593-58.207031-3.871094-3.441406-8.824219-4.898438-14.328125-4.222656-4.714844.585937-9.5 1.347656-14.121094 2.085937-27.570312 4.394531-44.921875 6.152344-53.910156-12.324219-14.5625-29.929687 14.917968-52.097656 28.265625-60.238281 2.71875-1.65625 5.242187-3.609375 7.585937-5.785156 32.265625-3.855469 62.753906-17.699219 89.921875-35.039063 32.574219 19.460938 57.582031 50.261719 69.574219 86.851563zm0 0"/></svg>